# xmcd
#
# Track frame offsets: 
#        150
#        16084
#        30560
#        42337
#        55315
#        74420
#        83955
#        93485
#        104440
#        135105
#        152495
#        160705
#        172520
#        188315
#        207184
#        217620
#        234965
#        245722
#        255034
#        266520
#
# Disc length: 3709 seconds
#
# Revision: 1
# Processed by: cddbd v1.5.1PL0 Copyright (c) Steve Scherf et al.
# Submitted via: ExactAudioCopy v0.90b4
#
DISCID=e70e7b14
DTITLE=雨果 - 茉莉花
DYEAR=1997
DGENRE=Folk
TTITLE0=鞠秀芳 - 撒耥子撩在外
TTITLE1=鞠秀芳 - 送郎
TTITLE2=靳小才 - 茉莉花
TTITLE3=靳小才 - 拔根芦柴花
TTITLE4=张鸣杰 - 水乡船歌
TTITLE5=张鸣杰 - 打鱼人
TTITLE6=徐小懿 - 紫竹调
TTITLE7=徐小懿 - 小板艄
TTITLE8=鞠秀芳 - 姑苏风光
TTITLE9=鞠秀芳 - 小九连环
TTITLE10=靳小才 - 杨柳青
TTITLE11=张鸣杰 - 搭凉棚
TTITLE12=徐小懿、张鸣杰 - 山歌
TTITLE13=徐小懿、张鸣杰 - 对花
TTITLE14=鞠秀芳 - 绣荷包
TTITLE15=鞠秀芳 - 约郎约在月上时
TTITLE16=徐小懿 - 拍娃娃
TTITLE17=徐小懿 - 晴采桑雨采桑
TTITLE18=鞠秀芳 - 银纽丝
TTITLE19=靳小才 - 挑担号子
EXTD=
EXTT0=
EXTT1=
EXTT2=
EXTT3=
EXTT4=
EXTT5=
EXTT6=
EXTT7=
EXTT8=
EXTT9=
EXTT10=
EXTT11=
EXTT12=
EXTT13=
EXTT14=
EXTT15=
EXTT16=
EXTT17=
EXTT18=
EXTT19=
PLAYORDER=
